<?xml version="1.0" encoding="utf-8" standalone="no"?>
<!DOCTYPE svg PUBLIC "-//W3C//DTD SVG 1.1//EN"
  "http://www.w3.org/Graphics/SVG/1.1/DTD/svg11.dtd">
<svg xmlns:xlink="http://www.w3.org/1999/xlink" width="504pt" height="244.8pt" viewBox="0 0 504 244.8" xmlns="http://www.w3.org/2000/svg" version="1.1">
 <metadata>
  <rdf:RDF xmlns:dc="http://purl.org/dc/elements/1.1/" xmlns:cc="http://creativecommons.org/ns#" xmlns:rdf="http://www.w3.org/1999/02/22-rdf-syntax-ns#">
   <cc:Work>
    <dc:type rdf:resource="http://purl.org/dc/dcmitype/StillImage"/>
    <dc:format>image/svg+xml</dc:format>
    <dc:creator>
     <cc:Agent>
      <dc:title>Matplotlib v3.11.2, https://matplotlib.org/</dc:title>
     </cc:Agent>
    </dc:creator>
   </cc:Work>
  </rdf:RDF>
 </metadata>
 <defs>
  <style type="text/css">*{stroke-linejoin: round; stroke-linecap: butt}</style>
 </defs>
 <g id="figure_1">
  <g id="patch_1">
   <path d="M 0 244.8 
L 504 244.8 
L 504 0 
L 0 0 
z
" style="fill: #fcfcfb"/>
  </g>
  <g id="axes_1">
   <g id="patch_2">
    <path d="M 54.066406 202.999219 
L 266.483203 202.999219 
L 266.483203 24.398437 
L 54.066406 24.398437 
z
" style="fill: #fcfcfb"/>
   </g>
   <g id="patch_3">
    <path d="M 54.066406 202.999219 
L 65.867339 202.999219 
L 65.867339 202.999219 
L 54.066406 202.999219 
z
" clip-path="url(#pd5fb17c9cf)" style="fill: #2a78d6; stroke: #fcfcfb; stroke-width: 2; stroke-linejoin: miter"/>
   </g>
   <g id="patch_4">
    <path d="M 65.867339 202.999219 
L 77.668273 202.999219 
L 77.668273 202.146484 
L 65.867339 202.146484 
z
" clip-path="url(#pd5fb17c9cf)" style="fill: #2a78d6; stroke: #fcfcfb; stroke-width: 2; stroke-linejoin: miter"/>
   </g>
   <g id="patch_5">
    <path d="M 77.668273 202.999219 
L 89.469206 202.999219 
L 89.469206 201.293749 
L 77.668273 201.293749 
z
" clip-path="url(#pd5fb17c9cf)" style="fill: #2a78d6; stroke: #fcfcfb; stroke-width: 2; stroke-linejoin: miter"/>
   </g>
   <g id="patch_6">
    <path d="M 89.469206 202.999219 
L 101.270139 202.999219 
L 101.270139 197.88281 
L 89.469206 197.88281 
z
" clip-path="url(#pd5fb17c9cf)" style="fill: #2a78d6; stroke: #fcfcfb; stroke-width: 2; stroke-linejoin: miter"/>
   </g>
   <g id="patch_7">
    <path d="M 101.270139 202.999219 
L 113.071072 202.999219 
L 113.071072 188.502727 
L 101.270139 188.502727 
z
" clip-path="url(#pd5fb17c9cf)" style="fill: #2a78d6; stroke: #fcfcfb; stroke-width: 2; stroke-linejoin: miter"/>
   </g>
   <g id="patch_8">
    <path d="M 113.071072 202.999219 
L 124.872005 202.999219 
L 124.872005 168.037092 
L 113.071072 168.037092 
z
" clip-path="url(#pd5fb17c9cf)" style="fill: #2a78d6; stroke: #fcfcfb; stroke-width: 2; stroke-linejoin: miter"/>
   </g>
   <g id="patch_9">
    <path d="M 124.872005 202.999219 
L 136.672938 202.999219 
L 136.672938 117.725739 
L 124.872005 117.725739 
z
" clip-path="url(#pd5fb17c9cf)" style="fill: #2a78d6; stroke: #fcfcfb; stroke-width: 2; stroke-linejoin: miter"/>
   </g>
   <g id="patch_10">
    <path d="M 136.672938 202.999219 
L 148.473872 202.999219 
L 148.473872 64.003447 
L 136.672938 64.003447 
z
" clip-path="url(#pd5fb17c9cf)" style="fill: #2a78d6; stroke: #fcfcfb; stroke-width: 2; stroke-linejoin: miter"/>
   </g>
   <g id="patch_11">
    <path d="M 148.473872 202.999219 
L 160.274805 202.999219 
L 160.274805 51.212425 
L 148.473872 51.212425 
z
" clip-path="url(#pd5fb17c9cf)" style="fill: #2a78d6; stroke: #fcfcfb; stroke-width: 2; stroke-linejoin: miter"/>
   </g>
   <g id="patch_12">
    <path d="M 160.274805 202.999219 
L 172.075738 202.999219 
L 172.075738 59.739773 
L 160.274805 59.739773 
z
" clip-path="url(#pd5fb17c9cf)" style="fill: #2a78d6; stroke: #fcfcfb; stroke-width: 2; stroke-linejoin: miter"/>
   </g>
   <g id="patch_13">
    <path d="M 172.075738 202.999219 
L 183.876671 202.999219 
L 183.876671 63.150712 
L 172.075738 63.150712 
z
" clip-path="url(#pd5fb17c9cf)" style="fill: #2a78d6; stroke: #fcfcfb; stroke-width: 2; stroke-linejoin: miter"/>
   </g>
   <g id="patch_14">
    <path d="M 183.876671 202.999219 
L 195.677604 202.999219 
L 195.677604 131.369496 
L 183.876671 131.369496 
z
" clip-path="url(#pd5fb17c9cf)" style="fill: #2a78d6; stroke: #fcfcfb; stroke-width: 2; stroke-linejoin: miter"/>
   </g>
   <g id="patch_15">
    <path d="M 195.677604 202.999219 
L 207.478537 202.999219 
L 207.478537 159.509744 
L 195.677604 159.509744 
z
" clip-path="url(#pd5fb17c9cf)" style="fill: #2a78d6; stroke: #fcfcfb; stroke-width: 2; stroke-linejoin: miter"/>
   </g>
   <g id="patch_16">
    <path d="M 207.478537 202.999219 
L 219.27947 202.999219 
L 219.27947 187.649992 
L 207.478537 187.649992 
z
" clip-path="url(#pd5fb17c9cf)" style="fill: #2a78d6; stroke: #fcfcfb; stroke-width: 2; stroke-linejoin: miter"/>
   </g>
   <g id="patch_17">
    <path d="M 219.27947 202.999219 
L 231.080404 202.999219 
L 231.080404 199.58828 
L 219.27947 199.58828 
z
" clip-path="url(#pd5fb17c9cf)" style="fill: #2a78d6; stroke: #fcfcfb; stroke-width: 2; stroke-linejoin: miter"/>
   </g>
   <g id="patch_18">
    <path d="M 231.080404 202.999219 
L 242.881337 202.999219 
L 242.881337 201.293749 
L 231.080404 201.293749 
z
" clip-path="url(#pd5fb17c9cf)" style="fill: #2a78d6; stroke: #fcfcfb; stroke-width: 2; stroke-linejoin: miter"/>
   </g>
   <g id="patch_19">
    <path d="M 242.881337 202.999219 
L 254.68227 202.999219 
L 254.68227 202.146484 
L 242.881337 202.146484 
z
" clip-path="url(#pd5fb17c9cf)" style="fill: #2a78d6; stroke: #fcfcfb; stroke-width: 2; stroke-linejoin: miter"/>
   </g>
   <g id="patch_20">
    <path d="M 254.68227 202.999219 
L 266.483203 202.999219 
L 266.483203 202.999219 
L 254.68227 202.999219 
z
" clip-path="url(#pd5fb17c9cf)" style="fill: #2a78d6; stroke: #fcfcfb; stroke-width: 2; stroke-linejoin: miter"/>
   </g>
   <g id="matplotlib.axis_1">
    <g id="xtick_1">
     <g id="line2d_1">
      <path d="M 65.867339 202.999219 
L 65.867339 24.398437 
" clip-path="url(#pd5fb17c9cf)" style="fill: none; stroke: #e1e0d9; stroke-width: 0.6; stroke-linecap: square"/>
     </g>
     <g id="line2d_2">
      <defs>
       <path id="mb0c05d37b1" d="M 0 0 
L 0 3.5 
" style="stroke: #898781; stroke-width: 0.8"/>
      </defs>
      <g>
       <use xlink:href="#mb0c05d37b1" x="65.867339" y="202.999219" style="fill: #898781; stroke: #898781; stroke-width: 0.8"/>
      </g>
     </g>
     <g id="text_1">
      <text style="font-size: 10px; font-family: 'DejaVu Sans', 'Bitstream Vera Sans', 'Computer Modern Sans Serif', 'Lucida Grande', 'Verdana', 'Geneva', 'Lucid', 'Arial', 'Helvetica', 'Avant Garde', sans-serif; text-anchor: middle; fill: #52514e" x="65.867339" y="217.596875" transform="rotate(-0 65.867339 217.596875)">−4</text>
     </g>
    </g>
    <g id="xtick_2">
     <g id="line2d_3">
      <path d="M 113.071072 202.999219 
L 113.071072 24.398437 
" clip-path="url(#pd5fb17c9cf)" style="fill: none; stroke: #e1e0d9; stroke-width: 0.6; stroke-linecap: square"/>
     </g>
     <g id="line2d_4">
      <g>
       <use xlink:href="#mb0c05d37b1" x="113.071072" y="202.999219" style="fill: #898781; stroke: #898781; stroke-width: 0.8"/>
      </g>
     </g>
     <g id="text_2">
      <text style="font-size: 10px; font-family: 'DejaVu Sans', 'Bitstream Vera Sans', 'Computer Modern Sans Serif', 'Lucida Grande', 'Verdana', 'Geneva', 'Lucid', 'Arial', 'Helvetica', 'Avant Garde', sans-serif; text-anchor: middle; fill: #52514e" x="113.071072" y="217.596875" transform="rotate(-0 113.071072 217.596875)">−2</text>
     </g>
    </g>
    <g id="xtick_3">
     <g id="line2d_5">
      <path d="M 160.274805 202.999219 
L 160.274805 24.398437 
" clip-path="url(#pd5fb17c9cf)" style="fill: none; stroke: #e1e0d9; stroke-width: 0.6; stroke-linecap: square"/>
     </g>
     <g id="line2d_6">
      <g>
       <use xlink:href="#mb0c05d37b1" x="160.274805" y="202.999219" style="fill: #898781; stroke: #898781; stroke-width: 0.8"/>
      </g>
     </g>
     <g id="text_3">
      <text style="font-size: 10px; font-family: 'DejaVu Sans', 'Bitstream Vera Sans', 'Computer Modern Sans Serif', 'Lucida Grande', 'Verdana', 'Geneva', 'Lucid', 'Arial', 'Helvetica', 'Avant Garde', sans-serif; text-anchor: middle; fill: #52514e" x="160.274805" y="217.596875" transform="rotate(-0 160.274805 217.596875)">0</text>
     </g>
    </g>
    <g id="xtick_4">
     <g id="line2d_7">
      <path d="M 207.478537 202.999219 
L 207.478537 24.398437 
" clip-path="url(#pd5fb17c9cf)" style="fill: none; stroke: #e1e0d9; stroke-width: 0.6; stroke-linecap: square"/>
     </g>
     <g id="line2d_8">
      <g>
       <use xlink:href="#mb0c05d37b1" x="207.478537" y="202.999219" style="fill: #898781; stroke: #898781; stroke-width: 0.8"/>
      </g>
     </g>
     <g id="text_4">
      <text style="font-size: 10px; font-family: 'DejaVu Sans', 'Bitstream Vera Sans', 'Computer Modern Sans Serif', 'Lucida Grande', 'Verdana', 'Geneva', 'Lucid', 'Arial', 'Helvetica', 'Avant Garde', sans-serif; text-anchor: middle; fill: #52514e" x="207.478537" y="217.596875" transform="rotate(-0 207.478537 217.596875)">2</text>
     </g>
    </g>
    <g id="xtick_5">
     <g id="line2d_9">
      <path d="M 254.68227 202.999219 
L 254.68227 24.398437 
" clip-path="url(#pd5fb17c9cf)" style="fill: none; stroke: #e1e0d9; stroke-width: 0.6; stroke-linecap: square"/>
     </g>
     <g id="line2d_10">
      <g>
       <use xlink:href="#mb0c05d37b1" x="254.68227" y="202.999219" style="fill: #898781; stroke: #898781; stroke-width: 0.8"/>
      </g>
     </g>
     <g id="text_5">
      <text style="font-size: 10px; font-family: 'DejaVu Sans', 'Bitstream Vera Sans', 'Computer Modern Sans Serif', 'Lucida Grande', 'Verdana', 'Geneva', 'Lucid', 'Arial', 'Helvetica', 'Avant Garde', sans-serif; text-anchor: middle; fill: #52514e" x="254.68227" y="217.596875" transform="rotate(-0 254.68227 217.596875)">4</text>
     </g>
    </g>
    <g id="text_6">
     <text style="font-size: 10px; font-family: 'DejaVu Sans', 'Bitstream Vera Sans', 'Computer Modern Sans Serif', 'Lucida Grande', 'Verdana', 'Geneva', 'Lucid', 'Arial', 'Helvetica', 'Avant Garde', sans-serif; text-anchor: middle; fill: #52514e" x="160.274805" y="231.597656" transform="rotate(-0 160.274805 231.597656)">z = (estimate − exact) / SE</text>
    </g>
   </g>
   <g id="matplotlib.axis_2">
    <g id="ytick_1">
     <g id="line2d_11">
      <path d="M 54.066406 202.999219 
L 266.483203 202.999219 
" clip-path="url(#pd5fb17c9cf)" style="fill: none; stroke: #e1e0d9; stroke-width: 0.6; stroke-linecap: square"/>
     </g>
     <g id="line2d_12">
      <defs>
       <path id="mdaa5750e94" d="M 0 0 
L -3.5 0 
" style="stroke: #898781; stroke-width: 0.8"/>
      </defs>
      <g>
       <use xlink:href="#mdaa5750e94" x="54.066406" y="202.999219" style="fill: #898781; stroke: #898781; stroke-width: 0.8"/>
      </g>
     </g>
     <g id="text_7">
      <text style="font-size: 10px; font-family: 'DejaVu Sans', 'Bitstream Vera Sans', 'Computer Modern Sans Serif', 'Lucida Grande', 'Verdana', 'Geneva', 'Lucid', 'Arial', 'Helvetica', 'Avant Garde', sans-serif; text-anchor: end; fill: #52514e" x="47.066406" y="206.798047" transform="rotate(-0 47.066406 206.798047)">0.0</text>
     </g>
    </g>
    <g id="ytick_2">
     <g id="line2d_13">
      <path d="M 54.066406 160.362479 
L 266.483203 160.362479 
" clip-path="url(#pd5fb17c9cf)" style="fill: none; stroke: #e1e0d9; stroke-width: 0.6; stroke-linecap: square"/>
     </g>
     <g id="line2d_14">
      <g>
       <use xlink:href="#mdaa5750e94" x="54.066406" y="160.362479" style="fill: #898781; stroke: #898781; stroke-width: 0.8"/>
      </g>
     </g>
     <g id="text_8">
      <text style="font-size: 10px; font-family: 'DejaVu Sans', 'Bitstream Vera Sans', 'Computer Modern Sans Serif', 'Lucida Grande', 'Verdana', 'Geneva', 'Lucid', 'Arial', 'Helvetica', 'Avant Garde', sans-serif; text-anchor: end; fill: #52514e" x="47.066406" y="164.161307" transform="rotate(-0 47.066406 164.161307)">0.1</text>
     </g>
    </g>
    <g id="ytick_3">
     <g id="line2d_15">
      <path d="M 54.066406 117.725739 
L 266.483203 117.725739 
" clip-path="url(#pd5fb17c9cf)" style="fill: none; stroke: #e1e0d9; stroke-width: 0.6; stroke-linecap: square"/>
     </g>
     <g id="line2d_16">
      <g>
       <use xlink:href="#mdaa5750e94" x="54.066406" y="117.725739" style="fill: #898781; stroke: #898781; stroke-width: 0.8"/>
      </g>
     </g>
     <g id="text_9">
      <text style="font-size: 10px; font-family: 'DejaVu Sans', 'Bitstream Vera Sans', 'Computer Modern Sans Serif', 'Lucida Grande', 'Verdana', 'Geneva', 'Lucid', 'Arial', 'Helvetica', 'Avant Garde', sans-serif; text-anchor: end; fill: #52514e" x="47.066406" y="121.524567" transform="rotate(-0 47.066406 121.524567)">0.2</text>
     </g>
    </g>
    <g id="ytick_4">
     <g id="line2d_17">
      <path d="M 54.066406 75.088999 
L 266.483203 75.088999 
" clip-path="url(#pd5fb17c9cf)" style="fill: none; stroke: #e1e0d9; stroke-width: 0.6; stroke-linecap: square"/>
     </g>
     <g id="line2d_18">
      <g>
       <use xlink:href="#mdaa5750e94" x="54.066406" y="75.088999" style="fill: #898781; stroke: #898781; stroke-width: 0.8"/>
      </g>
     </g>
     <g id="text_10">
      <text style="font-size: 10px; font-family: 'DejaVu Sans', 'Bitstream Vera Sans', 'Computer Modern Sans Serif', 'Lucida Grande', 'Verdana', 'Geneva', 'Lucid', 'Arial', 'Helvetica', 'Avant Garde', sans-serif; text-anchor: end; fill: #52514e" x="47.066406" y="78.887827" transform="rotate(-0 47.066406 78.887827)">0.3</text>
     </g>
    </g>
    <g id="ytick_5">
     <g id="line2d_19">
      <path d="M 54.066406 32.452259 
L 266.483203 32.452259 
" clip-path="url(#pd5fb17c9cf)" style="fill: none; stroke: #e1e0d9; stroke-width: 0.6; stroke-linecap: square"/>
     </g>
     <g id="line2d_20">
      <g>
       <use xlink:href="#mdaa5750e94" x="54.066406" y="32.452259" style="fill: #898781; stroke: #898781; stroke-width: 0.8"/>
      </g>
     </g>
     <g id="text_11">
      <text style="font-size: 10px; font-family: 'DejaVu Sans', 'Bitstream Vera Sans', 'Computer Modern Sans Serif', 'Lucida Grande', 'Verdana', 'Geneva', 'Lucid', 'Arial', 'Helvetica', 'Avant Garde', sans-serif; text-anchor: end; fill: #52514e" x="47.066406" y="36.251088" transform="rotate(-0 47.066406 36.251088)">0.4</text>
     </g>
    </g>
    <g id="text_12">
     <text style="font-size: 10px; font-family: 'DejaVu Sans', 'Bitstream Vera Sans', 'Computer Modern Sans Serif', 'Lucida Grande', 'Verdana', 'Geneva', 'Lucid', 'Arial', 'Helvetica', 'Avant Garde', sans-serif; text-anchor: middle; fill: #52514e" x="24.760937" y="113.698828" transform="rotate(-90 24.760937 113.698828)">density</text>
    </g>
   </g>
   <g id="line2d_21">
    <path d="M 65.867339 202.942158 
L 75.308086 202.738324 
L 81.208553 202.377263 
L 84.748832 201.982721 
L 88.289112 201.37486 
L 90.649299 200.806564 
L 93.009486 200.068895 
L 95.369672 199.12202 
L 97.729859 197.920226 
L 100.090046 196.412121 
L 102.450232 194.541218 
L 104.810419 192.246992 
L 107.170605 189.466466 
L 109.530792 186.13637 
L 111.890979 182.195893 
L 114.251165 177.589979 
L 116.611352 172.273106 
L 118.971539 166.213383 
L 121.331725 159.396789 
L 123.691912 151.831293 
L 126.052099 143.550571 
L 128.412285 134.616997 
L 131.952565 120.204616 
L 137.853032 94.67672 
L 142.573405 74.604035 
L 144.933592 65.294334 
L 147.293778 56.77914 
L 149.653965 49.282276 
L 152.014151 43.008968 
L 153.194245 40.387888 
L 154.374338 38.13654 
L 155.554431 36.271363 
L 156.734525 34.806093 
L 157.914618 33.751594 
L 159.094711 33.115724 
L 160.274805 32.903237 
L 161.454898 33.115724 
L 162.634991 33.751594 
L 163.815085 34.806093 
L 164.995178 36.271363 
L 166.175271 38.13654 
L 167.355365 40.387888 
L 168.535458 43.008968 
L 169.715551 45.980837 
L 172.075738 52.890041 
L 174.435924 60.923112 
L 176.796111 69.864322 
L 180.336391 84.475526 
L 190.957231 129.933238 
L 194.497511 143.550571 
L 196.857697 151.831293 
L 199.217884 159.396789 
L 201.578071 166.213383 
L 203.938257 172.273106 
L 206.298444 177.589979 
L 208.658631 182.195893 
L 211.018817 186.13637 
L 213.379004 189.466466 
L 215.739191 192.246992 
L 218.099377 194.541218 
L 220.459564 196.412121 
L 222.81975 197.920226 
L 225.179937 199.12202 
L 227.540124 200.068895 
L 229.90031 200.806564 
L 233.44059 201.606354 
L 236.98087 202.134099 
L 241.701243 202.556529 
L 247.60171 202.818106 
L 254.68227 202.942158 
L 254.68227 202.942158 
" clip-path="url(#pd5fb17c9cf)" style="fill: none; stroke-dasharray: 6,4.5; stroke-dashoffset: 0; stroke: #52514e; stroke-width: 1.5"/>
   </g>
   <g id="patch_21">
    <path d="M 54.066406 202.999219 
L 54.066406 24.398437 
" style="fill: none; stroke: #c3c2b7; stroke-width: 0.8; stroke-linejoin: miter; stroke-linecap: square"/>
   </g>
   <g id="patch_22">
    <path d="M 54.066406 202.999219 
L 266.483203 202.999219 
" style="fill: none; stroke: #c3c2b7; stroke-width: 0.8; stroke-linejoin: miter; stroke-linecap: square"/>
   </g>
   <g id="text_13">
    <text style="font-size: 10px; font-family: 'DejaVu Sans', 'Bitstream Vera Sans', 'Computer Modern Sans Serif', 'Lucida Grande', 'Verdana', 'Geneva', 'Lucid', 'Arial', 'Helvetica', 'Avant Garde', sans-serif; text-anchor: start; fill: #0b0b0b" x="54.066406" y="18.398437" transform="rotate(-0 54.066406 18.398437)">ATM call: 94.5% of 95 % CIs cover</text>
   </g>
   <g id="legend_1">
    <g id="line2d_22">
     <path d="M 63.066406 37.496875 
L 73.066406 37.496875 
L 83.066406 37.496875 
" style="fill: none; stroke-dasharray: 6,4.5; stroke-dashoffset: 0; stroke: #52514e; stroke-width: 1.5"/>
    </g>
    <g id="text_14">
     <text style="font-size: 10px; font-family: 'DejaVu Sans', 'Bitstream Vera Sans', 'Computer Modern Sans Serif', 'Lucida Grande', 'Verdana', 'Geneva', 'Lucid', 'Arial', 'Helvetica', 'Avant Garde', sans-serif; text-anchor: start; fill: #52514e" x="91.066406" y="40.996875" transform="rotate(-0 91.066406 40.996875)">N(0, 1)</text>
    </g>
   </g>
  </g>
  <g id="axes_2">
   <g id="patch_23">
    <path d="M 280.783203 202.999219 
L 493.2 202.999219 
L 493.2 24.398437 
L 280.783203 24.398437 
z
" style="fill: #fcfcfb"/>
   </g>
   <g id="patch_24">
    <path d="M 280.783203 202.999219 
L 292.584136 202.999219 
L 292.584136 202.999219 
L 280.783203 202.999219 
z
" clip-path="url(#p1d63095ebf)" style="fill: #2a78d6; stroke: #fcfcfb; stroke-width: 2; stroke-linejoin: miter"/>
   </g>
   <g id="patch_25">
    <path d="M 292.584136 202.999219 
L 304.385069 202.999219 
L 304.385069 202.999219 
L 292.584136 202.999219 
z
" clip-path="url(#p1d63095ebf)" style="fill: #2a78d6; stroke: #fcfcfb; stroke-width: 2; stroke-linejoin: miter"/>
   </g>
   <g id="patch_26">
    <path d="M 304.385069 202.999219 
L 316.186003 202.999219 
L 316.186003 202.146484 
L 304.385069 202.146484 
z
" clip-path="url(#p1d63095ebf)" style="fill: #2a78d6; stroke: #fcfcfb; stroke-width: 2; stroke-linejoin: miter"/>
   </g>
   <g id="patch_27">
    <path d="M 316.186003 202.999219 
L 327.986936 202.999219 
L 327.986936 196.17734 
L 316.186003 196.17734 
z
" clip-path="url(#p1d63095ebf)" style="fill: #2a78d6; stroke: #fcfcfb; stroke-width: 2; stroke-linejoin: miter"/>
   </g>
   <g id="patch_28">
    <path d="M 327.986936 202.999219 
L 339.787869 202.999219 
L 339.787869 190.208197 
L 327.986936 190.208197 
z
" clip-path="url(#p1d63095ebf)" style="fill: #2a78d6; stroke: #fcfcfb; stroke-width: 2; stroke-linejoin: miter"/>
   </g>
   <g id="patch_29">
    <path d="M 339.787869 202.999219 
L 351.588802 202.999219 
L 351.588802 159.509744 
L 339.787869 159.509744 
z
" clip-path="url(#p1d63095ebf)" style="fill: #2a78d6; stroke: #fcfcfb; stroke-width: 2; stroke-linejoin: miter"/>
   </g>
   <g id="patch_30">
    <path d="M 351.588802 202.999219 
L 363.389735 202.999219 
L 363.389735 128.811291 
L 351.588802 128.811291 
z
" clip-path="url(#p1d63095ebf)" style="fill: #2a78d6; stroke: #fcfcfb; stroke-width: 2; stroke-linejoin: miter"/>
   </g>
   <g id="patch_31">
    <path d="M 363.389735 202.999219 
L 375.190668 202.999219 
L 375.190668 82.763612 
L 363.389735 82.763612 
z
" clip-path="url(#p1d63095ebf)" style="fill: #2a78d6; stroke: #fcfcfb; stroke-width: 2; stroke-linejoin: miter"/>
   </g>
   <g id="patch_32">
    <path d="M 375.190668 202.999219 
L 386.991602 202.999219 
L 386.991602 37.568668 
L 375.190668 37.568668 
z
" clip-path="url(#p1d63095ebf)" style="fill: #2a78d6; stroke: #fcfcfb; stroke-width: 2; stroke-linejoin: miter"/>
   </g>
   <g id="patch_33">
    <path d="M 386.991602 202.999219 
L 398.792535 202.999219 
L 398.792535 40.979607 
L 386.991602 40.979607 
z
" clip-path="url(#p1d63095ebf)" style="fill: #2a78d6; stroke: #fcfcfb; stroke-width: 2; stroke-linejoin: miter"/>
   </g>
   <g id="patch_34">
    <path d="M 398.792535 202.999219 
L 410.593468 202.999219 
L 410.593468 65.708917 
L 398.792535 65.708917 
z
" clip-path="url(#p1d63095ebf)" style="fill: #2a78d6; stroke: #fcfcfb; stroke-width: 2; stroke-linejoin: miter"/>
   </g>
   <g id="patch_35">
    <path d="M 410.593468 202.999219 
L 422.394401 202.999219 
L 422.394401 126.253087 
L 410.593468 126.253087 
z
" clip-path="url(#p1d63095ebf)" style="fill: #2a78d6; stroke: #fcfcfb; stroke-width: 2; stroke-linejoin: miter"/>
   </g>
   <g id="patch_36">
    <path d="M 422.394401 202.999219 
L 434.195334 202.999219 
L 434.195334 166.331623 
L 422.394401 166.331623 
z
" clip-path="url(#p1d63095ebf)" style="fill: #2a78d6; stroke: #fcfcfb; stroke-width: 2; stroke-linejoin: miter"/>
   </g>
   <g id="patch_37">
    <path d="M 434.195334 202.999219 
L 445.996267 202.999219 
L 445.996267 191.060932 
L 434.195334 191.060932 
z
" clip-path="url(#p1d63095ebf)" style="fill: #2a78d6; stroke: #fcfcfb; stroke-width: 2; stroke-linejoin: miter"/>
   </g>
   <g id="patch_38">
    <path d="M 445.996267 202.999219 
L 457.797201 202.999219 
L 457.797201 200.441014 
L 445.996267 200.441014 
z
" clip-path="url(#p1d63095ebf)" style="fill: #2a78d6; stroke: #fcfcfb; stroke-width: 2; stroke-linejoin: miter"/>
   </g>
   <g id="patch_39">
    <path d="M 457.797201 202.999219 
L 469.598134 202.999219 
L 469.598134 202.146484 
L 457.797201 202.146484 
z
" clip-path="url(#p1d63095ebf)" style="fill: #2a78d6; stroke: #fcfcfb; stroke-width: 2; stroke-linejoin: miter"/>
   </g>
   <g id="patch_40">
    <path d="M 469.598134 202.999219 
L 481.399067 202.999219 
L 481.399067 202.999219 
L 469.598134 202.999219 
z
" clip-path="url(#p1d63095ebf)" style="fill: #2a78d6; stroke: #fcfcfb; stroke-width: 2; stroke-linejoin: miter"/>
   </g>
   <g id="patch_41">
    <path d="M 481.399067 202.999219 
L 493.2 202.999219 
L 493.2 202.146484 
L 481.399067 202.146484 
z
" clip-path="url(#p1d63095ebf)" style="fill: #2a78d6; stroke: #fcfcfb; stroke-width: 2; stroke-linejoin: miter"/>
   </g>
   <g id="matplotlib.axis_3">
    <g id="xtick_6">
     <g id="line2d_23">
      <path d="M 292.584136 202.999219 
L 292.584136 24.398437 
" clip-path="url(#p1d63095ebf)" style="fill: none; stroke: #e1e0d9; stroke-width: 0.6; stroke-linecap: square"/>
     </g>
     <g id="line2d_24">
      <g>
       <use xlink:href="#mb0c05d37b1" x="292.584136" y="202.999219" style="fill: #898781; stroke: #898781; stroke-width: 0.8"/>
      </g>
     </g>
     <g id="text_15">
      <text style="font-size: 10px; font-family: 'DejaVu Sans', 'Bitstream Vera Sans', 'Computer Modern Sans Serif', 'Lucida Grande', 'Verdana', 'Geneva', 'Lucid', 'Arial', 'Helvetica', 'Avant Garde', sans-serif; text-anchor: middle; fill: #52514e" x="292.584136" y="217.596875" transform="rotate(-0 292.584136 217.596875)">−4</text>
     </g>
    </g>
    <g id="xtick_7">
     <g id="line2d_25">
      <path d="M 339.787869 202.999219 
L 339.787869 24.398437 
" clip-path="url(#p1d63095ebf)" style="fill: none; stroke: #e1e0d9; stroke-width: 0.6; stroke-linecap: square"/>
     </g>
     <g id="line2d_26">
      <g>
       <use xlink:href="#mb0c05d37b1" x="339.787869" y="202.999219" style="fill: #898781; stroke: #898781; stroke-width: 0.8"/>
      </g>
     </g>
     <g id="text_16">
      <text style="font-size: 10px; font-family: 'DejaVu Sans', 'Bitstream Vera Sans', 'Computer Modern Sans Serif', 'Lucida Grande', 'Verdana', 'Geneva', 'Lucid', 'Arial', 'Helvetica', 'Avant Garde', sans-serif; text-anchor: middle; fill: #52514e" x="339.787869" y="217.596875" transform="rotate(-0 339.787869 217.596875)">−2</text>
     </g>
    </g>
    <g id="xtick_8">
     <g id="line2d_27">
      <path d="M 386.991602 202.999219 
L 386.991602 24.398437 
" clip-path="url(#p1d63095ebf)" style="fill: none; stroke: #e1e0d9; stroke-width: 0.6; stroke-linecap: square"/>
     </g>
     <g id="line2d_28">
      <g>
       <use xlink:href="#mb0c05d37b1" x="386.991602" y="202.999219" style="fill: #898781; stroke: #898781; stroke-width: 0.8"/>
      </g>
     </g>
     <g id="text_17">
      <text style="font-size: 10px; font-family: 'DejaVu Sans', 'Bitstream Vera Sans', 'Computer Modern Sans Serif', 'Lucida Grande', 'Verdana', 'Geneva', 'Lucid', 'Arial', 'Helvetica', 'Avant Garde', sans-serif; text-anchor: middle; fill: #52514e" x="386.991602" y="217.596875" transform="rotate(-0 386.991602 217.596875)">0</text>
     </g>
    </g>
    <g id="xtick_9">
     <g id="line2d_29">
      <path d="M 434.195334 202.999219 
L 434.195334 24.398437 
" clip-path="url(#p1d63095ebf)" style="fill: none; stroke: #e1e0d9; stroke-width: 0.6; stroke-linecap: square"/>
     </g>
     <g id="line2d_30">
      <g>
       <use xlink:href="#mb0c05d37b1" x="434.195334" y="202.999219" style="fill: #898781; stroke: #898781; stroke-width: 0.8"/>
      </g>
     </g>
     <g id="text_18">
      <text style="font-size: 10px; font-family: 'DejaVu Sans', 'Bitstream Vera Sans', 'Computer Modern Sans Serif', 'Lucida Grande', 'Verdana', 'Geneva', 'Lucid', 'Arial', 'Helvetica', 'Avant Garde', sans-serif; text-anchor: middle; fill: #52514e" x="434.195334" y="217.596875" transform="rotate(-0 434.195334 217.596875)">2</text>
     </g>
    </g>
    <g id="xtick_10">
     <g id="line2d_31">
      <path d="M 481.399067 202.999219 
L 481.399067 24.398437 
" clip-path="url(#p1d63095ebf)" style="fill: none; stroke: #e1e0d9; stroke-width: 0.6; stroke-linecap: square"/>
     </g>
     <g id="line2d_32">
      <g>
       <use xlink:href="#mb0c05d37b1" x="481.399067" y="202.999219" style="fill: #898781; stroke: #898781; stroke-width: 0.8"/>
      </g>
     </g>
     <g id="text_19">
      <text style="font-size: 10px; font-family: 'DejaVu Sans', 'Bitstream Vera Sans', 'Computer Modern Sans Serif', 'Lucida Grande', 'Verdana', 'Geneva', 'Lucid', 'Arial', 'Helvetica', 'Avant Garde', sans-serif; text-anchor: middle; fill: #52514e" x="481.399067" y="217.596875" transform="rotate(-0 481.399067 217.596875)">4</text>
     </g>
    </g>
    <g id="text_20">
     <text style="font-size: 10px; font-family: 'DejaVu Sans', 'Bitstream Vera Sans', 'Computer Modern Sans Serif', 'Lucida Grande', 'Verdana', 'Geneva', 'Lucid', 'Arial', 'Helvetica', 'Avant Garde', sans-serif; text-anchor: middle; fill: #52514e" x="386.991602" y="231.597656" transform="rotate(-0 386.991602 231.597656)">z = (estimate − exact) / SE</text>
    </g>
   </g>
   <g id="matplotlib.axis_4">
    <g id="ytick_6">
     <g id="line2d_33">
      <path d="M 280.783203 202.999219 
L 493.2 202.999219 
" clip-path="url(#p1d63095ebf)" style="fill: none; stroke: #e1e0d9; stroke-width: 0.6; stroke-linecap: square"/>
     </g>
     <g id="line2d_34">
      <g>
       <use xlink:href="#mdaa5750e94" x="280.783203" y="202.999219" style="fill: #898781; stroke: #898781; stroke-width: 0.8"/>
      </g>
     </g>
    </g>
    <g id="ytick_7">
     <g id="line2d_35">
      <path d="M 280.783203 160.362479 
L 493.2 160.362479 
" clip-path="url(#p1d63095ebf)" style="fill: none; stroke: #e1e0d9; stroke-width: 0.6; stroke-linecap: square"/>
     </g>
     <g id="line2d_36">
      <g>
       <use xlink:href="#mdaa5750e94" x="280.783203" y="160.362479" style="fill: #898781; stroke: #898781; stroke-width: 0.8"/>
      </g>
     </g>
    </g>
    <g id="ytick_8">
     <g id="line2d_37">
      <path d="M 280.783203 117.725739 
L 493.2 117.725739 
" clip-path="url(#p1d63095ebf)" style="fill: none; stroke: #e1e0d9; stroke-width: 0.6; stroke-linecap: square"/>
     </g>
     <g id="line2d_38">
      <g>
       <use xlink:href="#mdaa5750e94" x="280.783203" y="117.725739" style="fill: #898781; stroke: #898781; stroke-width: 0.8"/>
      </g>
     </g>
    </g>
    <g id="ytick_9">
     <g id="line2d_39">
      <path d="M 280.783203 75.088999 
L 493.2 75.088999 
" clip-path="url(#p1d63095ebf)" style="fill: none; stroke: #e1e0d9; stroke-width: 0.6; stroke-linecap: square"/>
     </g>
     <g id="line2d_40">
      <g>
       <use xlink:href="#mdaa5750e94" x="280.783203" y="75.088999" style="fill: #898781; stroke: #898781; stroke-width: 0.8"/>
      </g>
     </g>
    </g>
    <g id="ytick_10">
     <g id="line2d_41">
      <path d="M 280.783203 32.452259 
L 493.2 32.452259 
" clip-path="url(#p1d63095ebf)" style="fill: none; stroke: #e1e0d9; stroke-width: 0.6; stroke-linecap: square"/>
     </g>
     <g id="line2d_42">
      <g>
       <use xlink:href="#mdaa5750e94" x="280.783203" y="32.452259" style="fill: #898781; stroke: #898781; stroke-width: 0.8"/>
      </g>
     </g>
    </g>
   </g>
   <g id="line2d_43">
    <path d="M 292.584136 202.942158 
L 302.024883 202.738324 
L 307.925349 202.377263 
L 311.465629 201.982721 
L 315.005909 201.37486 
L 317.366096 200.806564 
L 319.726283 200.068895 
L 322.086469 199.12202 
L 324.446656 197.920226 
L 326.806842 196.412121 
L 329.167029 194.541218 
L 331.527216 192.246992 
L 333.887402 189.466466 
L 336.247589 186.13637 
L 338.607776 182.195893 
L 340.967962 177.589979 
L 343.328149 172.273106 
L 345.688336 166.213383 
L 348.048522 159.396789 
L 350.408709 151.831293 
L 352.768895 143.550571 
L 355.129082 134.616997 
L 358.669362 120.204616 
L 364.569829 94.67672 
L 369.290202 74.604035 
L 371.650388 65.294334 
L 374.010575 56.77914 
L 376.370762 49.282276 
L 378.730948 43.008968 
L 379.911042 40.387888 
L 381.091135 38.13654 
L 382.271228 36.271363 
L 383.451322 34.806093 
L 384.631415 33.751594 
L 385.811508 33.115724 
L 386.991602 32.903237 
L 388.171695 33.115724 
L 389.351788 33.751594 
L 390.531882 34.806093 
L 391.711975 36.271363 
L 392.892068 38.13654 
L 394.072161 40.387888 
L 395.252255 43.008968 
L 396.432348 45.980837 
L 398.792535 52.890041 
L 401.152721 60.923112 
L 403.512908 69.864322 
L 407.053188 84.475526 
L 417.674028 129.933238 
L 421.214308 143.550571 
L 423.574494 151.831293 
L 425.934681 159.396789 
L 428.294868 166.213383 
L 430.655054 172.273106 
L 433.015241 177.589979 
L 435.375428 182.195893 
L 437.735614 186.13637 
L 440.095801 189.466466 
L 442.455987 192.246992 
L 444.816174 194.541218 
L 447.176361 196.412121 
L 449.536547 197.920226 
L 451.896734 199.12202 
L 454.256921 200.068895 
L 456.617107 200.806564 
L 460.157387 201.606354 
L 463.697667 202.134099 
L 468.41804 202.556529 
L 474.318507 202.818106 
L 481.399067 202.942158 
L 481.399067 202.942158 
" clip-path="url(#p1d63095ebf)" style="fill: none; stroke-dasharray: 6,4.5; stroke-dashoffset: 0; stroke: #52514e; stroke-width: 1.5"/>
   </g>
   <g id="patch_42">
    <path d="M 280.783203 202.999219 
L 280.783203 24.398437 
" style="fill: none; stroke: #c3c2b7; stroke-width: 0.8; stroke-linejoin: miter; stroke-linecap: square"/>
   </g>
   <g id="patch_43">
    <path d="M 280.783203 202.999219 
L 493.2 202.999219 
" style="fill: none; stroke: #c3c2b7; stroke-width: 0.8; stroke-linejoin: miter; stroke-linecap: square"/>
   </g>
   <g id="text_21">
    <text style="font-size: 10px; font-family: 'DejaVu Sans', 'Bitstream Vera Sans', 'Computer Modern Sans Serif', 'Lucida Grande', 'Verdana', 'Geneva', 'Lucid', 'Arial', 'Helvetica', 'Avant Garde', sans-serif; text-anchor: start; fill: #0b0b0b" x="280.783203" y="18.398437" transform="rotate(-0 280.783203 18.398437)">OTM digital, K = 130: 95.7% of 95 % CIs cover</text>
   </g>
  </g>
 </g>
 <defs>
  <clipPath id="pd5fb17c9cf">
   <rect x="54.066406" y="24.398437" width="212.416797" height="178.600781"/>
  </clipPath>
  <clipPath id="p1d63095ebf">
   <rect x="280.783203" y="24.398437" width="212.416797" height="178.600781"/>
  </clipPath>
 </defs>
</svg>
